<svg width="183" height="38" viewBox="0 0 183 38" fill="none" xmlns="http://www.w3.org/2000/svg">
<path fill-rule="evenodd" clip-rule="evenodd" d="M32.6353 0.955265L22.2573 11.347H5.38204C4.93709 11.347 4.4199 11.6721 4.22733 12.0722L0.0988525 20.6492C-0.093927 21.0497 0.00363719 21.6286 0.318571 21.9441L10.123 31.7661L11.7985 33.4433L13.02 34.6678L15.3554 37.0072C15.6694 37.3217 16.1778 37.3223 16.4922 37.0074L29.4601 24.0139C29.7739 23.6995 30.0283 23.084 30.0283 22.6381V17.0766L31.1466 15.9317C31.4569 15.614 31.7084 14.996 31.7084 14.5512V10.1106L32.6353 9.21962L33.7964 8.05556C34.1106 7.7406 34.3653 7.12495 34.3653 6.68181V0.833449C34.3653 -0.0558115 33.8556 -0.26642 33.2282 0.361644L32.6353 0.955265ZM11.2883 30.5414L27.0144 14.8853L29.9774 11.8994V15.2463L28.8547 16.3818L28.3016 16.9423L28.1061 17.1419L12.9641 32.2137L11.2883 30.5414ZM15.8982 35.1389L14.2136 33.4618L28.3403 19.3894L28.3523 19.3751V22.7294L15.8982 35.1389ZM32.7402 6.79303L28.3979 11.1286L27.6246 11.8987L26.3255 13.1965L10.2006 29.2884L8.52556 27.6174L23.0658 13.1062L32.7402 3.44867V6.79303Z" fill="#EC1115"/>
<path d="M51.6096 14.5159C50.2089 14.5159 49.1221 15.0714 48.301 16.1098C47.6731 15.0714 46.6346 14.5159 45.3788 14.5159C44.1713 14.5159 43.1328 15.0472 42.4808 16.0132V15.4095C42.4808 15.0472 42.2876 14.8299 41.9253 14.8299H39.945C39.5827 14.8299 39.3654 15.0472 39.3654 15.4095V26.3496C39.3654 26.7119 39.5827 26.9051 39.945 26.9051H41.9253C42.2876 26.9051 42.4808 26.7119 42.4808 26.3496V19.4426C42.4808 17.8728 43.4226 17.3898 44.2679 17.3898C45.1131 17.3898 45.8135 17.8004 45.8135 19.0079V26.3496C45.8135 26.7119 46.0309 26.9051 46.3931 26.9051H48.3493C48.7357 26.9051 48.9289 26.7119 48.9289 26.3496V19.4426C48.9289 17.8728 49.8708 17.3898 50.716 17.3898C51.5371 17.3898 52.2617 17.8004 52.2617 19.0079V26.3496C52.2617 26.7119 52.4549 26.9051 52.8413 26.9051H54.7974C55.1597 26.9051 55.3771 26.7119 55.3771 26.3496V18.7664C55.3771 15.9891 53.9039 14.5159 51.6096 14.5159Z" fill="#343541"/>
<path d="M63.7235 27.2432C67.2494 27.2432 70.0992 24.4659 70.0992 20.8675C70.0992 17.2932 67.2494 14.5159 63.7235 14.5159C60.1734 14.5159 57.3236 17.2932 57.3236 20.8675C57.3236 24.4659 60.1734 27.2432 63.7235 27.2432ZM63.7235 24.2002C61.8639 24.2002 60.439 22.8237 60.439 20.8675C60.439 18.9113 61.8639 17.5347 63.7235 17.5347C65.5589 17.5347 66.9838 18.9113 66.9838 20.8675C66.9838 22.8237 65.5589 24.2002 63.7235 24.2002Z" fill="#343541"/>
<path d="M78.7631 14.5159C77.2658 14.5159 76.1549 15.0714 75.4786 16.0857V15.4095C75.4786 15.0472 75.2854 14.8299 74.899 14.8299H72.9429C72.5806 14.8299 72.3633 15.0472 72.3633 15.4095V26.3496C72.3633 26.7119 72.5806 26.9051 72.9429 26.9051H74.899C75.2854 26.9051 75.4786 26.7119 75.4786 26.3496V19.9256C75.4786 18.1143 76.4447 17.3898 77.6522 17.3898C78.7631 17.3898 79.5842 18.0419 79.5842 19.4426V26.3496C79.5842 26.7119 79.7774 26.9051 80.1397 26.9051H82.12C82.4823 26.9051 82.6996 26.7119 82.6996 26.3496V19.2011C82.6996 16.2306 81.0091 14.5159 78.7631 14.5159Z" fill="#343541"/>
<path d="M90.9645 14.8299H89.4672V11.5454C89.4672 11.1832 89.274 10.9658 88.8876 10.9658H86.9314C86.5691 10.9658 86.3518 11.1832 86.3518 11.5454V14.8299H84.8545C84.4681 14.8299 84.2749 15.0472 84.2749 15.4095V17.2691C84.2749 17.6313 84.4681 17.8245 84.8545 17.8245H86.3518V26.3496C86.3518 26.7119 86.5691 26.9051 86.9314 26.9051H88.8876C89.274 26.9051 89.4672 26.7119 89.4672 26.3496V17.8245H90.9645C91.3509 17.8245 91.5441 17.6313 91.5441 17.2691V15.4095C91.5441 15.0472 91.3509 14.8299 90.9645 14.8299Z" fill="#343541"/>
<path d="M98.8928 14.5159C95.1012 14.5159 92.493 17.2932 92.493 20.8675C92.493 24.49 95.0287 27.2432 98.9653 27.2432C101.429 27.2432 103.409 26.1081 104.327 24.0795C104.496 23.7172 104.278 23.4516 103.844 23.4516H101.912C101.622 23.4516 101.429 23.5723 101.211 23.7897C100.728 24.2968 99.9313 24.6591 99.0136 24.6591C97.4679 24.6591 96.1638 23.8863 95.7291 22.1716H101.791H104.278C104.616 22.1716 104.858 22.0025 104.882 21.6403C104.906 21.3988 104.93 21.1573 104.93 20.8916C104.93 17.3174 102.467 14.5159 98.8928 14.5159ZM95.7291 19.7083C96.0914 18.2109 97.2264 17.3174 98.8687 17.3174C100.173 17.3174 101.453 17.9936 101.815 19.7083H95.7291Z" fill="#343541"/>
<path d="M118.692 22.5099H116.542C116.204 22.5099 116.011 22.6548 115.842 22.9204C115.335 23.6933 114.417 24.1763 113.33 24.1763C111.471 24.1763 110.046 22.7997 110.046 20.8677C110.046 18.9598 111.471 17.5832 113.33 17.5832C114.417 17.5832 115.335 18.0421 115.842 18.839C116.011 19.1047 116.228 19.2496 116.542 19.2496H118.692C119.102 19.2496 119.32 18.9839 119.175 18.5975C118.402 16.1825 116.083 14.5161 113.33 14.5161C109.659 14.5161 106.93 17.2934 106.93 20.8677C106.93 24.4661 109.659 27.2434 113.33 27.2434C116.083 27.2434 118.402 25.577 119.175 23.162C119.32 22.7514 119.102 22.5099 118.692 22.5099Z" fill="#EC1115"/>
<path d="M121.889 13.1395H123.87C124.232 13.1395 124.425 12.9463 124.425 12.5841V10.5796C124.425 10.2174 124.232 10 123.87 10H121.889C121.527 10 121.31 10.2174 121.31 10.5796V12.5841C121.31 12.9463 121.527 13.1395 121.889 13.1395ZM121.889 26.9053H123.87C124.232 26.9053 124.425 26.7121 124.425 26.3498V15.4097C124.425 15.0474 124.232 14.8301 123.87 14.8301H121.889C121.527 14.8301 121.31 15.0474 121.31 15.4097V26.3498C121.31 26.7121 121.527 26.9053 121.889 26.9053Z" fill="#EC1115"/>
<path d="M133.749 14.5161C132.252 14.5161 131.141 15.0716 130.464 16.0859V15.4097C130.464 15.0474 130.271 14.8301 129.885 14.8301H127.929C127.566 14.8301 127.349 15.0474 127.349 15.4097V26.3498C127.349 26.7121 127.566 26.9053 127.929 26.9053H129.885C130.271 26.9053 130.464 26.7121 130.464 26.3498V19.9258C130.464 18.1145 131.43 17.39 132.638 17.39C133.749 17.39 134.57 18.0421 134.57 19.4428V26.3498C134.57 26.7121 134.763 26.9053 135.125 26.9053H137.106C137.468 26.9053 137.685 26.7121 137.685 26.3498V19.2013C137.685 16.2308 135.995 14.5161 133.749 14.5161Z" fill="#EC1115"/>
<path d="M146.047 14.5161C142.255 14.5161 139.647 17.2934 139.647 20.8677C139.647 24.4902 142.183 27.2434 146.119 27.2434C148.583 27.2434 150.563 26.1083 151.481 24.0797C151.65 23.7174 151.432 23.4518 150.998 23.4518H149.066C148.776 23.4518 148.583 23.5725 148.365 23.7899C147.882 24.297 147.085 24.6593 146.168 24.6593C144.622 24.6593 143.318 23.8865 142.883 22.1718H148.945H151.432C151.77 22.1718 152.012 22.0027 152.036 21.6405C152.06 21.399 152.084 21.1575 152.084 20.8918C152.084 17.3176 149.621 14.5161 146.047 14.5161ZM142.883 19.7084C143.245 18.2111 144.38 17.3176 146.023 17.3176C147.327 17.3176 148.607 17.9938 148.969 19.7084H142.883Z" fill="#EC1115"/>
<path d="M166.506 14.5161C165.106 14.5161 164.019 15.0716 163.198 16.11C162.57 15.0716 161.531 14.5161 160.276 14.5161C159.068 14.5161 158.03 15.0474 157.378 16.0134V15.4097C157.378 15.0474 157.184 14.8301 156.822 14.8301H154.842C154.479 14.8301 154.262 15.0474 154.262 15.4097V26.3498C154.262 26.7121 154.479 26.9053 154.842 26.9053H156.822C157.184 26.9053 157.378 26.7121 157.378 26.3498V19.4428C157.378 17.873 158.319 17.39 159.165 17.39C160.01 17.39 160.71 17.8006 160.71 19.0081V26.3498C160.71 26.7121 160.928 26.9053 161.29 26.9053H163.246C163.632 26.9053 163.826 26.7121 163.826 26.3498V19.4428C163.826 17.873 164.768 17.39 165.613 17.39C166.434 17.39 167.158 17.8006 167.158 19.0081V26.3498C167.158 26.7121 167.352 26.9053 167.738 26.9053H169.694C170.056 26.9053 170.274 26.7121 170.274 26.3498V18.7666C170.274 15.9893 168.801 14.5161 166.506 14.5161Z" fill="#EC1115"/>
<path d="M177.703 14.5161C175.215 14.5161 173.114 15.8685 172.8 18.356C172.776 18.7424 173.017 18.9356 173.38 18.9356H175.312C175.65 18.9356 175.77 18.7666 175.915 18.4285C176.109 17.7764 176.785 17.39 177.703 17.39C178.838 17.39 179.562 17.9938 179.562 19.4186V20.7228C178.862 20.0949 177.823 19.636 176.302 19.636C174.152 19.636 172.22 20.916 172.22 23.4518C172.22 25.9875 174.152 27.2434 176.302 27.2434C177.823 27.2434 178.862 26.7121 179.562 25.8668V26.3498C179.562 26.7121 179.779 26.9294 180.142 26.9294H182.025C182.412 26.9294 182.605 26.7121 182.605 26.3498V19.2496C182.605 16.11 180.359 14.5161 177.703 14.5161ZM177.34 24.9491C175.988 24.9491 175.336 24.3212 175.336 23.4518C175.336 22.5823 175.988 21.9544 177.34 21.9544C178.717 21.9544 179.562 22.5099 179.562 23.4518C179.562 24.3212 178.717 24.9491 177.34 24.9491Z" fill="#EC1115"/>
</svg>
