<svg width="25" height="16" viewBox="0 0 25 16" fill="none" xmlns="http://www.w3.org/2000/svg">
<path d="M12.2484 1.00121C8.21736 0.933207 4.04836 3.75021 1.42736 6.63521C1.15225 6.94064 1 7.33714 1 7.74821C1 8.15927 1.15225 8.55578 1.42736 8.86121C3.99136 11.6852 8.14836 14.5672 12.2484 14.4982C16.3484 14.5672 20.5064 11.6852 23.0724 8.86121C23.3475 8.55578 23.4997 8.15927 23.4997 7.74821C23.4997 7.33714 23.3475 6.94064 23.0724 6.63521C20.4484 3.75021 16.2794 0.933207 12.2484 1.00121Z" stroke="#5D5D67" stroke-width="1.5" stroke-linecap="round" stroke-linejoin="round"/>
<path d="M15.9983 7.75027C15.9981 8.49191 15.778 9.21683 15.3658 9.83338C14.9536 10.4499 14.3679 10.9304 13.6827 11.2141C12.9974 11.4978 12.2435 11.5719 11.5161 11.4271C10.7887 11.2823 10.1206 10.9251 9.59629 10.4006C9.07194 9.87608 8.71489 9.20789 8.57027 8.48049C8.42566 7.75309 8.49998 6.99914 8.78384 6.31397C9.0677 5.62881 9.54835 5.0432 10.165 4.63119C10.7817 4.21918 11.5067 3.99927 12.2483 3.99927C12.7409 3.99914 13.2286 4.09608 13.6837 4.28455C14.1388 4.47302 14.5523 4.74933 14.9006 5.09768C15.2488 5.44603 15.525 5.8596 15.7134 6.31474C15.9017 6.76989 15.9986 7.25769 15.9983 7.75027Z" stroke="#5D5D67" stroke-width="1.5" stroke-linecap="round" stroke-linejoin="round"/>
</svg>
